<?xml version="1.0" encoding="UTF-8" standalone="no"?>
<!-- Created with Inkscape (http://www.inkscape.org/) -->

<svg
   width="600px"
   height="600px"
   viewBox="0 0 600 600"
   version="1.1"
   id="SVGRoot"
   sodipodi:docname="InovareLogoFinal.svg"
   inkscape:version="1.1.2 (1:1.1+202202050950+0a00cf5339)"
   xmlns:inkscape="http://www.inkscape.org/namespaces/inkscape"
   xmlns:sodipodi="http://sodipodi.sourceforge.net/DTD/sodipodi-0.dtd"
   xmlns="http://www.w3.org/2000/svg"
   xmlns:svg="http://www.w3.org/2000/svg">
  <sodipodi:namedview
     id="namedview60095"
     pagecolor="#ffffff"
     bordercolor="#666666"
     borderopacity="1.0"
     inkscape:pageshadow="2"
     inkscape:pageopacity="0.0"
     inkscape:pagecheckerboard="0"
     inkscape:document-units="px"
     showgrid="false"
     inkscape:zoom="0.77593294"
     inkscape:cx="396.94152"
     inkscape:cy="355.70084"
     inkscape:window-width="1870"
     inkscape:window-height="1043"
     inkscape:window-x="50"
     inkscape:window-y="0"
     inkscape:window-maximized="1"
     inkscape:current-layer="layer1" />
  <defs
     id="defs60090" />
  <g
     inkscape:label="Camada 1"
     inkscape:groupmode="layer"
     id="layer1">
    <path
       style="fill:none;stroke:#000000;stroke-width:1.64255px;stroke-linecap:butt;stroke-linejoin:miter;stroke-opacity:1"
       d="m 154.86881,450.00773 289.85542,0.0607 12.13501,-21.92416 L 310.81134,128.8517 176.81392,405.52941 402.58155,406.3104 299.71751,197.649 199.40282,406.02515 l -0.59365,0.48408"
       id="path259" />
    <path
       style="fill:none;stroke:#000000;stroke-width:1.64255px;stroke-linecap:butt;stroke-linejoin:miter;stroke-opacity:1"
       d="m 287.65217,127.68561 -144.06406,299.74816 11.2807,22.57396 v 0"
       id="path261" />
    <path
       style="fill:none;stroke:#000000;stroke-width:1.64255px;stroke-linecap:butt;stroke-linejoin:miter;stroke-opacity:1"
       d="m 143.58811,427.43377 268.96206,-0.5778 -9.96862,-20.5454 v 0"
       id="path263" />
    <path
       style="fill:none;stroke:#000000;stroke-width:1.64255px;stroke-linecap:butt;stroke-linejoin:miter;stroke-opacity:1"
       d="M 299.71751,197.64902 309.99189,173.32017 444.72423,450.0684"
       id="path265" />
    <path
       style="fill:none;stroke:#000000;stroke-width:1.64255px;stroke-linecap:butt;stroke-linejoin:miter;stroke-opacity:1"
       d="m 287.65217,127.68561 23.15917,1.16611 v 0"
       id="path267" />
    <path
       style="fill:none;stroke:#000000;stroke-width:1.64255px;stroke-linecap:butt;stroke-linejoin:miter;stroke-opacity:1"
       d="m 243.10476,336.41977 c 0,0 9.91894,-13.57851 15.90328,-18.99878 5.23231,-4.73912 10.95258,-9.0415 17.19538,-11.55737 7.94468,-3.20166 16.55011,-4.56997 24.93849,-4.16114 9.58838,0.46723 19.34531,2.81536 28.07594,7.51404 11.60733,6.24692 30.85929,26.70697 30.85929,26.70697 l -7.83441,6.25817 c 0,0 -10.83287,13.84962 -17.79079,18.08011 -9.49199,5.77128 -22.88603,8.77365 -31.11321,9.00901 -7.49378,0.2144 -14.99116,-1.48285 -22.29405,-3.47682 -5.39004,-1.47172 -10.94572,-2.96003 -15.73667,-6.22337 -8.5545,-5.82683 -14.8022,-15.43386 -22.20325,-23.15082 z"
       id="path269"
       sodipodi:nodetypes="cssssccsssac" />
    <path
       style="fill:none;stroke:#000000;stroke-width:1.64255px;stroke-linecap:butt;stroke-linejoin:miter;stroke-opacity:1"
       d="M 315.64534,351.95725 Z"
       id="path911" />
    <path
       style="fill:none;stroke:#000000;stroke-width:1.64255px;stroke-linecap:butt;stroke-linejoin:miter;stroke-opacity:1"
       d="m 243.10476,336.41977 c 14.76938,-34.22006 35.17931,-46.1605 58.20196,-44.95287 19.36251,1.01563 38.86932,11.06696 58.77042,44.45659 v 0"
       id="path4502"
       sodipodi:nodetypes="cscc" />
    <path
       style="fill:none;stroke:#000000;stroke-width:1.64255px;stroke-linecap:butt;stroke-linejoin:miter;stroke-opacity:1"
       d="m 256.55373,352.48785 c 5.86202,7.40796 8.48104,22.79314 44.1849,24.7639 19.90117,1.09849 38.33265,-13.39134 51.5041,-35.07009"
       id="path5050"
       sodipodi:nodetypes="csc" />
    <path
       style="fill:none;stroke:#000000;stroke-width:1.64255px;stroke-linecap:butt;stroke-linejoin:miter;stroke-opacity:1"
       d="m 391.00996,293.41623 c 45.34549,-9.48634 44.83154,-38.54131 27.46398,-74.78775 88.67434,-86.96904 124.20683,-150.115617 151.74279,-209.6775418 19.1022,45.0410188 4.17056,86.7807638 -39.62742,127.7416518 -0.29782,4.00323 -2.06647,7.83198 -3.46819,11.70428 23.43173,-20.44083 43.05788,-42.64668 61.91747,-65.207961 0.0886,27.351111 13.36803,51.069801 -54.16702,99.027341 l -2.13153,9.09665 c 24.72649,-12.98142 42.10102,-27.32009 62.45937,-42.07577 -3.04116,49.43069 -35.55751,55.713 -63.12246,73.7925 l -6.86166,7.07396 c 16.90001,-1.87631 38.72457,-12.12586 58.69468,-19.2222 -9.82674,45.31316 -35.38854,35.26486 -59.10294,40.95974 -0.0664,2.80052 -6.52244,10.30221 -9.64599,9.4906 16.86481,3.91477 32.79818,0.92129 48.73806,-2.02396 -2.90402,32.2482 -40.82956,23.62551 -65.59926,30.35596 13.86908,7.95455 26.97187,5.57852 40.41103,7.73719 -4.72551,21.74118 -31.17428,16.39683 -56.20344,12.82238 7.83841,11.8121 17.25404,12.06222 26.11517,16.3772 -14.58409,12.82947 -30.74252,5.324 -47.04208,-4.00403 -14.73042,2.64673 -26.97942,-3.84528 -36.75151,-19.45975 l -18.63968,16.0302 -0.81846,0.2845"
       id="path5903"
       sodipodi:nodetypes="ccccccccccccccccccccccc" />
    <path
       style="fill:none;stroke:#000000;stroke-width:1.64255px;stroke-linecap:butt;stroke-linejoin:miter;stroke-opacity:1"
       d="m 434.13442,213.72619 c 33.18631,-27.84867 63.95958,-58.79418 93.0964,-91.83976 4.32633,7.29362 3.11789,17.67767 3.01619,12.98433 0.35328,4.32253 -1.60583,8.18761 -3.12589,13.52611 -10.76947,37.82368 -56.05124,52.08679 -86.06663,76.81011 30.40748,-19.34559 63.11475,-33.73348 90.92745,-58.67249 4.49713,5.11297 2.9992,9.33223 2.98727,14.21334 -0.006,3.10195 -1.94254,9.01932 -1.94254,9.01932 -4.81296,22.34681 -57.10971,34.18183 -91.39191,48.20862 31.47341,-5.31423 61.83531,-12.06883 88.88522,-27.98589 1.73571,4.55392 2.72963,10.11005 0.25208,14.35329 l -5.55683,5.76042 c -13.90599,14.41534 -51.60763,15.90358 -82.01418,21.02012 27.9843,-0.86534 60.23262,2.22683 79.52995,-6.70113 2.68419,4.06235 2.62108,9.3594 -1.57279,13.48918 l -5.99723,3.41997 c -22.7956,12.99943 -48.52524,6.35748 -74.24391,5.04716 21.88949,7.83172 43.59098,10.50055 65.2285,11.41202 -1.51301,4.6752 -4.04897,8.68445 -7.84579,11.87282 -16.55376,10.05821 -39.89534,-4.73137 -60.95287,-11.15971 16.83421,10.53574 33.67209,21.05058 52.22242,21.74246 -0.88078,9.99806 -4.11419,9.34051 -7.06196,9.97682 -19.68948,2.79917 -34.67663,-11.53207 -51.45476,-19.33885 12.18537,9.06087 24.32306,22.14678 36.58075,25.11221 1.92425,2.91702 0.40815,5.20818 -6.0529,6.59981 v 0"
       id="path7360"
       sodipodi:nodetypes="cccsccascccscccscccccccccc" />
    <path
       style="fill:none;stroke:#000000;stroke-width:1.64255px;stroke-linecap:butt;stroke-linejoin:miter;stroke-opacity:1"
       d="m 527.57101,137.59036 c 0,0 0,0 0,0 z"
       id="path11618" />
    <path
       style="fill:none;stroke:#000000;stroke-width:1.64255px;stroke-linecap:butt;stroke-linejoin:miter;stroke-opacity:1"
       d="M 209.19932,293.60697 C 163.85387,284.12062 164.36777,255.06573 181.73533,218.81921 93.061006,131.85024 57.528519,68.703662 29.992568,9.1416837 10.890378,54.182685 25.822013,95.92243 69.619975,136.88339 c 0.297819,4.00316 2.066472,7.83191 3.468188,11.70421 C 49.656451,128.14677 30.030296,105.94099 11.170709,83.379637 11.08211,110.73075 -2.1973253,134.44945 65.337721,182.40698 l 2.131524,9.09665 C 42.742777,178.52221 25.368247,164.18353 5.0098831,149.42786 c 3.0411694,49.43068 35.5575269,55.713 63.1224539,73.7925 l 6.86166,7.07398 c -16.900014,-1.87633 -38.724561,-12.12588 -58.694669,-19.22223 9.826739,45.31316 35.388551,35.26487 59.102926,40.95977 0.06625,2.80051 6.522446,10.30218 9.64599,9.49057 -16.864801,3.91479 -32.798159,0.92132 -48.73805,-2.02395 2.904035,32.2482 40.829557,23.62551 65.599256,30.35598 -13.869079,7.95453 -26.971868,5.5785 -40.41102,7.73717 4.7255,21.74118 31.174268,16.39683 56.20342,12.82239 -7.8384,11.81208 -17.25401,12.06221 -26.115143,16.3772 14.584073,12.82946 30.742503,5.32399 47.042093,-4.00405 14.73042,2.64673 26.97937,-3.84525 36.75151,-19.45972 l 18.63967,16.03017 0.81848,0.28453"
       id="path5903-3"
       sodipodi:nodetypes="ccccccccccccccccccccccc" />
    <path
       style="fill:none;stroke:#000000;stroke-width:1.64255px;stroke-linecap:butt;stroke-linejoin:miter;stroke-opacity:1"
       d="m 166.07485,213.91692 c -33.18631,-27.84866 -63.95956,-58.79417 -93.096385,-91.83976 -4.326327,7.29362 -3.117888,17.67767 -3.01619,12.98432 -0.35328,4.32254 1.605837,8.18763 3.125888,13.52612 10.769474,37.82369 56.051217,52.08678 86.066617,76.81011 -30.40747,-19.3456 -63.114745,-33.73348 -90.927431,-58.67242 -4.497131,5.1129 -2.999212,9.33216 -2.987265,14.21327 0.0057,3.10195 1.942541,9.01932 1.942541,9.01932 4.812953,22.34683 57.109675,34.1819 91.391885,48.20861 -31.47341,-5.31422 -61.835296,-12.06882 -88.885204,-27.98587 -1.735712,4.55392 -2.729621,10.11005 -0.252081,14.3533 l 5.556832,5.76042 c 13.905995,14.41532 51.607603,15.90355 82.014153,21.02011 -27.98429,-0.86535 -60.232591,2.22684 -79.529925,-6.70114 -2.68419,4.06237 -2.621075,9.35947 1.57279,13.48924 l 5.99723,3.4199 c 22.795605,12.99944 48.525225,6.35751 74.243885,5.04719 -21.88949,7.8317 -43.59095,10.50055 -65.228469,11.412 1.513017,4.67522 4.048971,8.68452 7.845789,11.87284 16.55378,10.05819 39.89538,-4.73138 60.95291,-11.15973 -16.83422,10.53574 -33.6721,21.05058 -52.22246,21.74246 0.88078,9.99806 4.11419,9.3405 7.06196,9.97683 19.68952,2.79916 34.67665,-11.53209 51.45475,-19.33885 -12.18532,9.06085 -24.32308,22.14677 -36.58071,25.1122 -1.92424,2.91702 -0.40815,5.20818 6.0529,6.5998 v 0"
       id="path7360-6"
       sodipodi:nodetypes="cccsccascccscccscccccccccc" />
    <path
       style="fill:none;stroke:#000000;stroke-width:1.64255px;stroke-linecap:butt;stroke-linejoin:miter;stroke-opacity:1"
       d="m 72.638282,137.7811 c 0,0 0,0 0,0 z"
       id="path11618-1" />
    <path
       style="fill:none;stroke:#000000;stroke-width:1.64255px;stroke-linecap:butt;stroke-linejoin:miter;stroke-opacity:1"
       d="m 142.49988,465.55099 -0.29839,88.96557 17.07595,-0.1807 0.0697,-88.92071 z"
       id="path15143"
       sodipodi:nodetypes="ccccc" />
    <path
       style="fill:none;stroke:#000000;stroke-width:1.64255px;stroke-linecap:butt;stroke-linejoin:miter;stroke-opacity:1"
       d="M 158.64115,466.77541 Z"
       id="path15145" />
    <path
       style="fill:none;stroke:#000000;stroke-width:1.64255px;stroke-linecap:butt;stroke-linejoin:miter;stroke-opacity:1"
       d="M 158.64115,466.77541 Z"
       id="path15147" />
    <path
       style="fill:none;stroke:#000000;stroke-width:1.64255px;stroke-linecap:butt;stroke-linejoin:miter;stroke-opacity:1"
       d="m 167.56282,466.31784 15.42856,0.16643 15.7696,43.46625 0.38586,-43.90339 15.46765,0.4362 0.31555,88.89106 -15.31148,-0.24811 -16.62307,-45.94031 0.22466,45.90795 -14.52159,-0.31283 z"
       id="path15787"
       sodipodi:nodetypes="ccccccccccc" />
    <path
       style="fill:none;stroke:#000000;stroke-width:1.64255px;stroke-linecap:butt;stroke-linejoin:miter;stroke-opacity:1"
       d="m 220.20042,512.02837 c -0.89341,17.02115 0.47104,42.23656 23.79214,43.9527 18.19139,1.33863 25.1564,-20.30472 25.6688,-45.06162 0.79099,-38.21264 -10.73597,-45.39172 -23.44301,-45.56324 -14.32033,-0.19349 -24.11568,10.43052 -26.01793,46.67216 z"
       id="path16554"
       sodipodi:nodetypes="sssss" />
    <path
       style="fill:none;stroke:#000000;stroke-width:1.64255px;stroke-linecap:butt;stroke-linejoin:miter;stroke-opacity:1"
       d="m 268.9914,466.33604 16.90207,88.60903 17.55821,0.16929 17.46925,-89.06325 -18.39834,-0.0202 -6.60636,49.52392 -8.19506,-49.3071 z"
       id="path17558"
       sodipodi:nodetypes="cccccccc" />
    <path
       style="fill:none;stroke:#000000;stroke-width:1.64255px;stroke-linecap:butt;stroke-linejoin:miter;stroke-opacity:1"
       d="m 317.62172,554.61965 16.37234,-89.1555 18.04351,-0.16928 15.48716,89.86756 -16.99753,-0.0863 -3.02705,-18.85301 -10.45452,0.29665 -3.83758,18.35471 z"
       id="path17593" />
    <path
       style="fill:none;stroke:#000000;stroke-width:1.64255px;stroke-linecap:butt;stroke-linejoin:miter;stroke-opacity:1"
       d="m 337.75143,519.27178 9.12968,0.10311 -4.46615,-32.20707 z"
       id="path17595" />
    <path
       style="fill:none;stroke:#000000;stroke-width:1.64255px;stroke-linecap:butt;stroke-linejoin:miter;stroke-opacity:1"
       d="m 371.09139,466.71179 0.78544,88.37993 15.93567,0.15377 0.2458,-34.24958 c 10.99648,-1.61931 8.7165,22.04072 12.47816,34.19706 l 16.49947,0.18879 c -7.26089,-10.83254 -0.0794,-29.54216 -12.36225,-41.3794 29.43238,-37.34323 -9.43029,-53.9748 -33.58229,-47.29052 z"
       id="path18261"
       sodipodi:nodetypes="cccccccc" />
    <path
       style="fill:none;stroke:#000000;stroke-width:1.64255px;stroke-linecap:butt;stroke-linejoin:miter;stroke-opacity:1"
       d="m 388.25997,481.77164 -0.1,23.79577 c 5.18726,-0.28453 8.02362,-1.49648 10.74004,-12.26705 2.6001,-10.30934 -5.6268,-11.46277 -10.64001,-11.52872 z"
       id="path19588"
       sodipodi:nodetypes="ccsc" />
    <path
       style="fill:none;stroke:#000000;stroke-width:1.64255px;stroke-linecap:butt;stroke-linejoin:miter;stroke-opacity:1"
       d="m 422.58933,465.89996 0.14519,89.25723 35.70857,0.0876 -0.0457,-18.19433 -18.54268,-0.10239 0.1875,-18.59103 16.93364,-0.004 -0.13098,-17.75636 -17.40375,-0.30608 0.10753,-17.88155 17.14794,0.13343 -0.15377,-17.4653 z"
       id="path19908" />
    <path
       style="fill:none;stroke:#000000;stroke-width:1.64255px;stroke-linecap:butt;stroke-linejoin:miter;stroke-opacity:1"
       d="m 245.24673,481.92584 c -10.25369,2.66075 -7.90946,19.74749 -7.70727,31.23999 0.17207,9.79014 -0.4453,25.04128 7.25311,25.86213 7.64062,0.81464 7.42455,-16.86613 7.63056,-27.66253 0.23838,-12.50848 -0.57661,-31.15222 -7.1764,-29.43959 z"
       id="path504"
       sodipodi:nodetypes="sssss" />
    <text
       xml:space="preserve"
       style="font-style:normal;font-weight:normal;font-size:35.8236px;line-height:1.25;font-family:sans-serif;fill:#000000;fill-opacity:1;stroke:none;stroke-width:0.895588"
       x="112.03574"
       y="665.54163"
       id="text10624"
       transform="scale(1.1374522,0.8791578)"><tspan
         sodipodi:role="line"
         id="tspan10622"
         style="font-style:normal;font-variant:normal;font-weight:normal;font-stretch:normal;font-family:AnjaliOldLipi;-inkscape-font-specification:AnjaliOldLipi;stroke-width:0.895588"
         x="112.03574"
         y="665.54163">Redes de proteção</tspan></text>
    <path
       style="fill:none;fill-opacity:1;stroke:#000000;stroke-width:0.772371"
       d="m 293.85759,364.33161 c -7.76627,-3.04262 -13.25633,-8.73216 -16.57903,-17.18132 -1.52611,-3.88079 -1.87343,-6.00022 -1.87966,-11.4708 -0.006,-5.77565 0.2984,-7.46994 2.19074,-12.16267 2.63456,-6.53434 7.02709,-11.84269 12.35155,-14.92691 3.37568,-1.95541 4.8001,-2.26858 10.31714,-2.26858 5.56049,0 6.92957,0.30609 10.42873,2.33296 5.3686,3.10944 9.58654,8.227 12.24998,14.86253 1.87971,4.68317 2.18732,6.39881 2.1808,12.16267 -0.0121,8.18028 -2.06516,14.1414 -7.04098,20.41536 -5.92772,7.47424 -16.76127,11.15865 -24.21927,8.23676 z m 10.46806,-14.84871 c 5.4229,-1.77632 9.08984,-8.28388 9.08984,-16.13137 0,-2.43941 -0.005,-2.4421 -3.45264,-1.88278 -5.35098,0.86796 -6.97747,-2.23966 -4.71052,-9.00045 0.43502,-1.29812 0.0121,-1.46573 -3.67327,-1.44948 -7.55135,0.0337 -11.76077,3.76288 -13.68468,12.12445 -0.73563,3.19735 -0.66492,3.45921 1.70891,6.32641 2.02137,2.4415 2.47629,3.62971 2.47629,6.46744 0,3.2935 0.12175,3.49421 2.31141,3.81473 4.52119,0.66207 7.32514,0.58589 9.93466,-0.269 z"
       id="path51948-6" />
  </g>
</svg>
