<?xml version="1.0" encoding="UTF-8" standalone="no"?>
<!-- Created with Inkscape (http://www.inkscape.org/) -->

<svg
   width="600px"
   height="600px"
   viewBox="0 0 600 600"
   version="1.1"
   id="SVGRoot"
   sodipodi:docname="logoPintado.svg"
   inkscape:version="1.1.2 (1:1.1+202202050950+0a00cf5339)"
   xmlns:inkscape="http://www.inkscape.org/namespaces/inkscape"
   xmlns:sodipodi="http://sodipodi.sourceforge.net/DTD/sodipodi-0.dtd"
   xmlns="http://www.w3.org/2000/svg"
   xmlns:svg="http://www.w3.org/2000/svg">
  <sodipodi:namedview
     id="namedview60095"
     pagecolor="#ffffff"
     bordercolor="#666666"
     borderopacity="1.0"
     inkscape:pageshadow="2"
     inkscape:pageopacity="0.0"
     inkscape:pagecheckerboard="0"
     inkscape:document-units="px"
     showgrid="false"
     inkscape:zoom="1.5518659"
     inkscape:cx="356.98961"
     inkscape:cy="335.72489"
     inkscape:window-width="1870"
     inkscape:window-height="1043"
     inkscape:window-x="50"
     inkscape:window-y="0"
     inkscape:window-maximized="1"
     inkscape:current-layer="layer1" />
  <defs
     id="defs60090" />
  <g
     inkscape:label="Camada 1"
     inkscape:groupmode="layer"
     id="layer1">
    <path
       style="fill:none;stroke:#000000;stroke-width:1.64255px;stroke-linecap:butt;stroke-linejoin:miter;stroke-opacity:1"
       d="m 154.86881,450.00773 289.85542,0.0607 12.13501,-21.92416 L 310.81134,128.8517 176.81392,405.52941 402.58155,406.3104 299.71751,197.649 199.40282,406.02515 l -0.59365,0.48408"
       id="path259" />
    <path
       style="fill:none;stroke:#000000;stroke-width:1.64255px;stroke-linecap:butt;stroke-linejoin:miter;stroke-opacity:1"
       d="m 287.65217,127.68561 -144.06406,299.74816 11.2807,22.57396 v 0"
       id="path261" />
    <path
       style="fill:none;stroke:#000000;stroke-width:1.64255px;stroke-linecap:butt;stroke-linejoin:miter;stroke-opacity:1"
       d="m 143.58811,427.43377 268.96206,-0.5778 -9.96862,-20.5454 v 0"
       id="path263" />
    <path
       style="fill:none;stroke:#000000;stroke-width:1.64255px;stroke-linecap:butt;stroke-linejoin:miter;stroke-opacity:1"
       d="M 299.71751,197.64902 309.99189,173.32017 444.72423,450.0684"
       id="path265" />
    <path
       style="fill:none;stroke:#000000;stroke-width:1.64255px;stroke-linecap:butt;stroke-linejoin:miter;stroke-opacity:1"
       d="m 287.65217,127.68561 23.15917,1.16611 v 0"
       id="path267" />
    <path
       style="fill:none;stroke:#000000;stroke-width:1.64255px;stroke-linecap:butt;stroke-linejoin:miter;stroke-opacity:1"
       d="m 243.10476,336.41977 c 0,0 9.91894,-13.57851 15.90328,-18.99878 5.23231,-4.73912 10.95258,-9.0415 17.19538,-11.55737 7.94468,-3.20166 16.55011,-4.56997 24.93849,-4.16114 9.58838,0.46723 19.34531,2.81536 28.07594,7.51404 11.60733,6.24692 30.85929,26.70697 30.85929,26.70697 l -7.83441,6.25817 c 0,0 -10.83287,13.84962 -17.79079,18.08011 -9.49199,5.77128 -22.88603,8.77365 -31.11321,9.00901 -7.49378,0.2144 -14.99116,-1.48285 -22.29405,-3.47682 -5.39004,-1.47172 -10.94572,-2.96003 -15.73667,-6.22337 -8.5545,-5.82683 -14.8022,-15.43386 -22.20325,-23.15082 z"
       id="path269"
       sodipodi:nodetypes="cssssccsssac" />
    <path
       style="fill:none;stroke:#000000;stroke-width:1.64255px;stroke-linecap:butt;stroke-linejoin:miter;stroke-opacity:1"
       d="M 315.64534,351.95725 Z"
       id="path911" />
    <path
       style="fill:none;stroke:#000000;stroke-width:1.64255px;stroke-linecap:butt;stroke-linejoin:miter;stroke-opacity:1"
       d="m 243.10476,336.41977 c 14.76938,-34.22006 35.17931,-46.1605 58.20196,-44.95287 19.36251,1.01563 38.86932,11.06696 58.77042,44.45659 v 0"
       id="path4502"
       sodipodi:nodetypes="cscc" />
    <path
       style="fill:none;stroke:#000000;stroke-width:1.64255px;stroke-linecap:butt;stroke-linejoin:miter;stroke-opacity:1"
       d="m 256.55373,352.48785 c 5.86202,7.40796 8.48104,22.79314 44.1849,24.7639 19.90117,1.09849 38.33265,-13.39134 51.5041,-35.07009"
       id="path5050"
       sodipodi:nodetypes="csc" />
    <path
       style="fill:none;stroke:#000000;stroke-width:1.64255px;stroke-linecap:butt;stroke-linejoin:miter;stroke-opacity:1"
       d="m 391.00996,293.41623 c 45.34549,-9.48634 44.83154,-38.54131 27.46398,-74.78775 88.67434,-86.96904 124.20683,-150.115617 151.74279,-209.6775418 19.1022,45.0410188 4.17056,86.7807638 -39.62742,127.7416518 -0.29782,4.00323 -2.06647,7.83198 -3.46819,11.70428 23.43173,-20.44083 43.05788,-42.64668 61.91747,-65.207961 0.0886,27.351111 13.36803,51.069801 -54.16702,99.027341 l -2.13153,9.09665 c 24.72649,-12.98142 42.10102,-27.32009 62.45937,-42.07577 -3.04116,49.43069 -35.55751,55.713 -63.12246,73.7925 l -6.86166,7.07396 c 16.90001,-1.87631 38.72457,-12.12586 58.69468,-19.2222 -9.82674,45.31316 -35.38854,35.26486 -59.10294,40.95974 -0.0664,2.80052 -6.52244,10.30221 -9.64599,9.4906 16.86481,3.91477 32.79818,0.92129 48.73806,-2.02396 -2.90402,32.2482 -40.82956,23.62551 -65.59926,30.35596 13.86908,7.95455 26.97187,5.57852 40.41103,7.73719 -4.72551,21.74118 -31.17428,16.39683 -56.20344,12.82238 7.83841,11.8121 17.25404,12.06222 26.11517,16.3772 -14.58409,12.82947 -30.74252,5.324 -47.04208,-4.00403 -14.73042,2.64673 -26.97942,-3.84528 -36.75151,-19.45975 l -18.63968,16.0302 -0.81846,0.2845"
       id="path5903"
       sodipodi:nodetypes="ccccccccccccccccccccccc" />
    <path
       style="fill:none;stroke:#000000;stroke-width:1.64255px;stroke-linecap:butt;stroke-linejoin:miter;stroke-opacity:1"
       d="m 434.13442,213.72619 c 33.18631,-27.84867 63.95958,-58.79418 93.0964,-91.83976 4.32633,7.29362 3.11789,17.67767 3.01619,12.98433 0.35328,4.32253 -1.60583,8.18761 -3.12589,13.52611 -10.76947,37.82368 -56.05124,52.08679 -86.06663,76.81011 30.40748,-19.34559 63.11475,-33.73348 90.92745,-58.67249 4.49713,5.11297 2.9992,9.33223 2.98727,14.21334 -0.006,3.10195 -1.94254,9.01932 -1.94254,9.01932 -4.81296,22.34681 -57.10971,34.18183 -91.39191,48.20862 31.47341,-5.31423 61.83531,-12.06883 88.88522,-27.98589 1.73571,4.55392 2.72963,10.11005 0.25208,14.35329 l -5.55683,5.76042 c -13.90599,14.41534 -51.60763,15.90358 -82.01418,21.02012 27.9843,-0.86534 60.23262,2.22683 79.52995,-6.70113 2.68419,4.06235 2.62108,9.3594 -1.57279,13.48918 l -5.99723,3.41997 c -22.7956,12.99943 -48.52524,6.35748 -74.24391,5.04716 21.88949,7.83172 43.59098,10.50055 65.2285,11.41202 -1.51301,4.6752 -4.04897,8.68445 -7.84579,11.87282 -16.55376,10.05821 -39.89534,-4.73137 -60.95287,-11.15971 16.83421,10.53574 33.67209,21.05058 52.22242,21.74246 -0.88078,9.99806 -4.11419,9.34051 -7.06196,9.97682 -19.68948,2.79917 -34.67663,-11.53207 -51.45476,-19.33885 12.18537,9.06087 24.32306,22.14678 36.58075,25.11221 1.92425,2.91702 0.40815,5.20818 -6.0529,6.59981 v 0"
       id="path7360"
       sodipodi:nodetypes="cccsccascccscccscccccccccc" />
    <path
       style="fill:none;stroke:#000000;stroke-width:1.64255px;stroke-linecap:butt;stroke-linejoin:miter;stroke-opacity:1"
       d="m 527.57101,137.59036 c 0,0 0,0 0,0 z"
       id="path11618" />
    <path
       style="fill:none;stroke:#000000;stroke-width:1.64255px;stroke-linecap:butt;stroke-linejoin:miter;stroke-opacity:1"
       d="M 209.19932,293.60697 C 163.85387,284.12062 164.36777,255.06573 181.73533,218.81921 93.061006,131.85024 57.528519,68.703662 29.992568,9.1416837 10.890378,54.182685 25.822013,95.92243 69.619975,136.88339 c 0.297819,4.00316 2.066472,7.83191 3.468188,11.70421 C 49.656451,128.14677 30.030296,105.94099 11.170709,83.379637 11.08211,110.73075 -2.1973253,134.44945 65.337721,182.40698 l 2.131524,9.09665 C 42.742777,178.52221 25.368247,164.18353 5.0098831,149.42786 c 3.0411694,49.43068 35.5575269,55.713 63.1224539,73.7925 l 6.86166,7.07398 c -16.900014,-1.87633 -38.724561,-12.12588 -58.694669,-19.22223 9.826739,45.31316 35.388551,35.26487 59.102926,40.95977 0.06625,2.80051 6.522446,10.30218 9.64599,9.49057 -16.864801,3.91479 -32.798159,0.92132 -48.73805,-2.02395 2.904035,32.2482 40.829557,23.62551 65.599256,30.35598 -13.869079,7.95453 -26.971868,5.5785 -40.41102,7.73717 4.7255,21.74118 31.174268,16.39683 56.20342,12.82239 -7.8384,11.81208 -17.25401,12.06221 -26.115143,16.3772 14.584073,12.82946 30.742503,5.32399 47.042093,-4.00405 14.73042,2.64673 26.97937,-3.84525 36.75151,-19.45972 l 18.63967,16.03017 0.81848,0.28453"
       id="path5903-3"
       sodipodi:nodetypes="ccccccccccccccccccccccc" />
    <path
       style="fill:none;stroke:#000000;stroke-width:1.64255px;stroke-linecap:butt;stroke-linejoin:miter;stroke-opacity:1"
       d="m 166.07485,213.91692 c -33.18631,-27.84866 -63.95956,-58.79417 -93.096385,-91.83976 -4.326327,7.29362 -3.117888,17.67767 -3.01619,12.98432 -0.35328,4.32254 1.605837,8.18763 3.125888,13.52612 10.769474,37.82369 56.051217,52.08678 86.066617,76.81011 -30.40747,-19.3456 -63.114745,-33.73348 -90.927431,-58.67242 -4.497131,5.1129 -2.999212,9.33216 -2.987265,14.21327 0.0057,3.10195 1.942541,9.01932 1.942541,9.01932 4.812953,22.34683 57.109675,34.1819 91.391885,48.20861 -31.47341,-5.31422 -61.835296,-12.06882 -88.885204,-27.98587 -1.735712,4.55392 -2.729621,10.11005 -0.252081,14.3533 l 5.556832,5.76042 c 13.905995,14.41532 51.607603,15.90355 82.014153,21.02011 -27.98429,-0.86535 -60.232591,2.22684 -79.529925,-6.70114 -2.68419,4.06237 -2.621075,9.35947 1.57279,13.48924 l 5.99723,3.4199 c 22.795605,12.99944 48.525225,6.35751 74.243885,5.04719 -21.88949,7.8317 -43.59095,10.50055 -65.228469,11.412 1.513017,4.67522 4.048971,8.68452 7.845789,11.87284 16.55378,10.05819 39.89538,-4.73138 60.95291,-11.15973 -16.83422,10.53574 -33.6721,21.05058 -52.22246,21.74246 0.88078,9.99806 4.11419,9.3405 7.06196,9.97683 19.68952,2.79916 34.67665,-11.53209 51.45475,-19.33885 -12.18532,9.06085 -24.32308,22.14677 -36.58071,25.1122 -1.92424,2.91702 -0.40815,5.20818 6.0529,6.5998 v 0"
       id="path7360-6"
       sodipodi:nodetypes="cccsccascccscccscccccccccc" />
    <path
       style="fill:none;stroke:#000000;stroke-width:1.64255px;stroke-linecap:butt;stroke-linejoin:miter;stroke-opacity:1"
       d="m 72.638282,137.7811 c 0,0 0,0 0,0 z"
       id="path11618-1" />
    <path
       style="fill:none;stroke:#000000;stroke-width:1.64255px;stroke-linecap:butt;stroke-linejoin:miter;stroke-opacity:1"
       d="m 142.49988,465.55099 -0.29839,88.96557 17.07595,-0.1807 0.0697,-88.92071 z"
       id="path15143"
       sodipodi:nodetypes="ccccc" />
    <path
       style="fill:none;stroke:#000000;stroke-width:1.64255px;stroke-linecap:butt;stroke-linejoin:miter;stroke-opacity:1"
       d="M 158.64115,466.77541 Z"
       id="path15145" />
    <path
       style="fill:none;stroke:#000000;stroke-width:1.64255px;stroke-linecap:butt;stroke-linejoin:miter;stroke-opacity:1"
       d="M 158.64115,466.77541 Z"
       id="path15147" />
    <path
       style="fill:none;stroke:#000000;stroke-width:1.64255px;stroke-linecap:butt;stroke-linejoin:miter;stroke-opacity:1"
       d="m 167.56282,466.31784 15.42856,0.16643 15.7696,43.46625 0.38586,-43.90339 15.46765,0.4362 0.31555,88.89106 -15.31148,-0.24811 -16.62307,-45.94031 0.22466,45.90795 -14.52159,-0.31283 z"
       id="path15787"
       sodipodi:nodetypes="ccccccccccc" />
    <path
       style="fill:none;stroke:#000000;stroke-width:1.64255px;stroke-linecap:butt;stroke-linejoin:miter;stroke-opacity:1"
       d="m 220.20042,512.02837 c -0.89341,17.02115 0.47104,42.23656 23.79214,43.9527 18.19139,1.33863 25.1564,-20.30472 25.6688,-45.06162 0.79099,-38.21264 -10.73597,-45.39172 -23.44301,-45.56324 -14.32033,-0.19349 -24.11568,10.43052 -26.01793,46.67216 z"
       id="path16554"
       sodipodi:nodetypes="sssss" />
    <path
       style="fill:none;stroke:#000000;stroke-width:1.64255px;stroke-linecap:butt;stroke-linejoin:miter;stroke-opacity:1"
       d="m 268.9914,466.33604 16.90207,88.60903 17.55821,0.16929 17.46925,-89.06325 -18.39834,-0.0202 -6.60636,49.52392 -8.19506,-49.3071 z"
       id="path17558"
       sodipodi:nodetypes="cccccccc" />
    <path
       style="fill:none;stroke:#000000;stroke-width:1.64255px;stroke-linecap:butt;stroke-linejoin:miter;stroke-opacity:1"
       d="m 317.62172,554.61965 16.37234,-89.1555 18.04351,-0.16928 15.48716,89.86756 -16.99753,-0.0863 -3.02705,-18.85301 -10.45452,0.29665 -3.83758,18.35471 z"
       id="path17593" />
    <path
       style="fill:none;stroke:#000000;stroke-width:1.64255px;stroke-linecap:butt;stroke-linejoin:miter;stroke-opacity:1"
       d="m 337.75143,519.27178 9.12968,0.10311 -4.46615,-32.20707 z"
       id="path17595" />
    <path
       style="fill:none;stroke:#000000;stroke-width:1.64255px;stroke-linecap:butt;stroke-linejoin:miter;stroke-opacity:1"
       d="m 371.09139,466.71179 0.78544,88.37993 15.93567,0.15377 0.2458,-34.24958 c 10.99648,-1.61931 8.7165,22.04072 12.47816,34.19706 l 16.49947,0.18879 c -7.26089,-10.83254 -0.0794,-29.54216 -12.36225,-41.3794 29.43238,-37.34323 -9.43029,-53.9748 -33.58229,-47.29052 z"
       id="path18261"
       sodipodi:nodetypes="cccccccc" />
    <path
       style="fill:none;stroke:#000000;stroke-width:1.64255px;stroke-linecap:butt;stroke-linejoin:miter;stroke-opacity:1"
       d="m 388.25997,481.77164 -0.1,23.79577 c 5.18726,-0.28453 8.02362,-1.49648 10.74004,-12.26705 2.6001,-10.30934 -5.6268,-11.46277 -10.64001,-11.52872 z"
       id="path19588"
       sodipodi:nodetypes="ccsc" />
    <path
       style="fill:none;stroke:#000000;stroke-width:1.64255px;stroke-linecap:butt;stroke-linejoin:miter;stroke-opacity:1"
       d="m 422.58933,465.89996 0.14519,89.25723 35.70857,0.0876 -0.0457,-18.19433 -18.54268,-0.10239 0.1875,-18.59103 16.93364,-0.004 -0.13098,-17.75636 -17.40375,-0.30608 0.10753,-17.88155 17.14794,0.13343 -0.15377,-17.4653 z"
       id="path19908" />
    <path
       style="fill:none;stroke:#000000;stroke-width:1.64255px;stroke-linecap:butt;stroke-linejoin:miter;stroke-opacity:1"
       d="m 245.24673,481.92584 c -10.25369,2.66075 -7.90946,19.74749 -7.70727,31.23999 0.17207,9.79014 -0.4453,25.04128 7.25311,25.86213 7.64062,0.81464 7.42455,-16.86613 7.63056,-27.66253 0.23838,-12.50848 -0.57661,-31.15222 -7.1764,-29.43959 z"
       id="path504"
       sodipodi:nodetypes="sssss" />

    <path
       style="fill:none;fill-opacity:1;stroke:#000000;stroke-width:0.772371"
       d="m 293.85759,364.33161 c -7.76627,-3.04262 -13.25633,-8.73216 -16.57903,-17.18132 -1.52611,-3.88079 -1.87343,-6.00022 -1.87966,-11.4708 -0.006,-5.77565 0.2984,-7.46994 2.19074,-12.16267 2.63456,-6.53434 7.02709,-11.84269 12.35155,-14.92691 3.37568,-1.95541 4.8001,-2.26858 10.31714,-2.26858 5.56049,0 6.92957,0.30609 10.42873,2.33296 5.3686,3.10944 9.58654,8.227 12.24998,14.86253 1.87971,4.68317 2.18732,6.39881 2.1808,12.16267 -0.0121,8.18028 -2.06516,14.1414 -7.04098,20.41536 -5.92772,7.47424 -16.76127,11.15865 -24.21927,8.23676 z m 10.46806,-14.84871 c 5.4229,-1.77632 9.08984,-8.28388 9.08984,-16.13137 0,-2.43941 -0.005,-2.4421 -3.45264,-1.88278 -5.35098,0.86796 -6.97747,-2.23966 -4.71052,-9.00045 0.43502,-1.29812 0.0121,-1.46573 -3.67327,-1.44948 -7.55135,0.0337 -11.76077,3.76288 -13.68468,12.12445 -0.73563,3.19735 -0.66492,3.45921 1.70891,6.32641 2.02137,2.4415 2.47629,3.62971 2.47629,6.46744 0,3.2935 0.12175,3.49421 2.31141,3.81473 4.52119,0.66207 7.32514,0.58589 9.93466,-0.269 z"
       id="path51948-6" />
    <path
       style="fill:#806600;stroke:#000000;stroke-width:1.28877"
       d="m 146.63787,424.97229 c 0.28296,-0.53162 32.32894,-67.22552 71.2133,-148.20868 L 288.55001,129.5215 h 9.97174 9.97174 l -5.00154,10.63236 c -2.75086,5.8478 -32.82272,68.04655 -66.82637,138.21945 -34.00365,70.17289 -61.7276,127.66995 -61.60876,127.77125 0.49857,0.42497 130.43446,1.69206 176.43932,1.72057 l 49.92368,0.0309 4.5431,9.0214 4.5431,9.0214 H 278.31471 c -72.70521,1e-5 -131.95979,-0.43495 -131.67684,-0.96657 z"
       id="path60528" />
    <path
       style="fill:#aa8800;stroke:#000000;stroke-width:1.28877"
       d="m 151.06883,439.44965 c -2.63631,-5.32791 -4.7933,-9.96748 -4.7933,-10.31017 0,-0.34268 60.31449,-0.62307 134.0322,-0.62307 73.71771,0 134.0322,-0.29748 134.0322,-0.66109 0,-1.18202 -14.28442,-30.48952 -63.62616,-130.54247 -26.67331,-54.08694 -48.49693,-98.9992 -48.49693,-99.80502 0,-2.09378 6.94418,-18.97811 7.81315,-18.99714 0.39869,-0.009 21.8223,43.33516 47.60802,96.31976 25.7857,52.98461 55.4386,113.87904 65.89533,135.32097 l 19.01221,38.98533 H 299.20385 155.86214 Z"
       id="path60715" />
    <path
       style="fill:#d4aa00;stroke:#000000;stroke-width:1.28877"
       d="m 377.60995,308.53866 c -36.85885,-75.77214 -67.3376,-137.76954 -67.73056,-137.772 -0.39294,-0.002 -2.90459,5.36003 -5.58145,11.91665 -2.67685,6.55663 -27.54629,59.04183 -55.26541,116.63379 l -50.3984,104.71266 h -9.53267 c -5.24297,0 -9.33936,-0.53093 -9.10309,-1.17984 2.98455,-8.19688 130.67518,-269.23682 131.34904,-268.51887 0.51102,0.54446 33.0685,66.87355 72.34996,147.39799 l 71.42084,146.40807 -5.03854,8.88885 c -2.77121,4.88888 -5.13194,8.97691 -5.24609,9.08454 -0.11413,0.10762 -30.36477,-61.79971 -67.22363,-137.57184 z"
       id="path60791" />
    <path
       style="fill:#00feff;stroke:#000000;stroke-width:1.28877;fill-opacity:1"
       d="m 135.32941,319.78078 c -2.25051,-1.64561 -2.02288,-1.94244 3.2978,-4.30039 7.28747,-3.22955 32.48923,-23.24664 31.42856,-24.96286 -0.47218,-0.764 -4.85004,0.94471 -10.67928,4.16821 -22.70948,12.55808 -24.63473,13.29339 -34.85632,13.31264 -7.56379,0.0143 -9.79816,-0.43135 -10.90898,-2.17561 -1.86536,-2.92908 -1.10551,-3.4728 7.73561,-5.5353 4.15399,-0.96905 10.4474,-2.99385 13.98537,-4.49955 8.17731,-3.48012 28.98615,-15.72095 28.98615,-17.05115 0,-1.92673 -3.73349,-0.96734 -21.09071,5.41963 -21.49529,7.90968 -29.12422,9.04474 -37.01697,5.50751 -3.29275,-1.47568 -6.62,-4.17377 -7.904102,-6.40948 l -2.217613,-3.86102 11.239015,-0.85598 c 22.84251,-1.73971 51.58331,-8.42826 52.87561,-12.3052 0.46865,-1.40592 -0.4646,-1.60193 -4.41147,-0.92651 -10.77066,1.84315 -46.20636,2.48871 -53.25428,0.97018 -9.809765,-2.1136 -22.643288,-8.68024 -24.36979,-12.4695 -1.803238,-3.95767 -0.579179,-7.43856 2.224301,-6.32528 7.138452,2.8347 21.985839,4.30401 48.162609,4.76623 21.61436,0.38167 29.31955,0.12643 29.31955,-0.97128 0,-0.94659 -7.62886,-2.54094 -20.94253,-4.37676 -39.599378,-5.46035 -53.271618,-9.85785 -62.805011,-20.20035 -4.495271,-4.8768 -5.262643,-6.44948 -4.544023,-9.31269 0.475549,-1.89474 1.048783,-3.62913 1.273853,-3.8542 0.225069,-0.22507 4.084046,1.44584 8.575502,3.71312 11.603884,5.85762 38.933279,14.57071 57.969729,18.48175 17.497,3.59477 21.76125,4.01489 21.76125,2.14394 0,-1.28197 -4.67003,-3.15408 -32.86367,-13.17431 -26.09783,-9.27538 -45.290761,-18.88462 -51.77978,-25.92438 -5.256118,-5.70221 -8.178071,-13.82502 -8.12834,-22.59617 0.0408,-7.1963 1.749977,-7.39026 9.499696,-1.07803 3.991422,3.25106 11.456677,8.73679 16.589454,12.19051 11.59714,7.80346 64.88622,38.89084 66.66551,38.89084 3.86723,0 -0.55697,-3.73373 -17.70347,-14.94056 C 105.69992,187.8776 100.69506,184.28529 92.232242,175.91726 80.270906,164.0899 71.492454,146.07903 71.546535,133.4761 c 0.0392,-9.13655 1.484414,-8.55522 14.896433,5.99199 26.337822,28.56705 75.302282,75.11231 79.016302,75.11231 3.05654,0 1.01322,-2.39661 -10.84512,-12.72024 -18.53002,-16.13185 -47.37199,-44.47303 -65.092035,-63.96182 -8.700573,-9.56903 -16.215753,-17.39824 -16.700402,-17.39824 -1.433241,0 -3.872456,6.29131 -3.872456,9.98798 v 3.42284 l -5.247641,-5.09444 C 48.497315,114.05604 33.99182,92.122009 28.114496,75.004519 24.833993,65.450175 24.487729,62.772782 24.497903,47.040148 c 0.0085,-13.187565 0.576511,-19.191919 2.346799,-24.808845 1.284551,-4.075739 2.729356,-7.408953 3.210677,-7.407142 0.481321,0.0018 4.644785,7.680014 9.252142,17.062673 C 68.608175,91.556202 108.03817,145.87561 162.62153,201.76624 l 17.0633,17.47195 -3.12565,7.73833 c -14.02968,34.734 -7.16897,55.1593 21.89475,65.18383 3.55337,1.22561 6.288,2.91292 6.07694,3.74955 -0.21106,0.83665 -2.45945,6.0621 -4.99644,11.6121 l -4.61268,10.09092 -3.55707,-2.86514 c -1.95638,-1.57583 -6.40522,-5.28584 -9.88629,-8.24448 l -6.32922,-5.37931 -5.25926,6.79718 c -6.64498,8.58811 -16.09452,13.62724 -25.55426,13.62724 -3.62388,0 -7.67669,-0.79543 -9.00624,-1.76763 z"
       id="path60867" />
    <path
       style="fill:#00feff;fill-opacity:1;stroke:#000000;stroke-width:1.28877"
       d="m 443.3279,318.59007 c -6.08311,-2.9006 -11.6172,-8.028 -16.16739,-14.97927 l -2.00028,-3.05582 -9.9881,8.7111 c -5.49346,4.7911 -10.19892,8.49972 -10.45657,8.24136 -1.85962,-1.86465 -10.79813,-22.41618 -10.03061,-23.06251 0.53229,-0.44824 3.57756,-1.54289 6.76727,-2.43258 3.18971,-0.88969 8.13226,-2.96437 10.98345,-4.6104 19.2513,-11.11407 23.19546,-30.0597 12.17756,-58.49442 l -3.68693,-9.51513 21.37309,-22.70415 C 499.18493,136.26007 535.4716,85.413573 563.23845,27.223073 c 3.67884,-7.709683 7.05117,-13.431289 7.49405,-12.71468 0.44289,0.716609 1.96834,6.154611 3.3899,12.084449 7.96848,33.239608 -3.26005,64.977262 -35.27547,99.706728 -5.70809,6.19198 -7.13835,7.1932 -7.17859,5.02521 -0.0796,-4.29442 -2.73784,-10.83308 -4.36482,-10.73683 -0.81668,0.0483 -5.54451,4.73162 -10.50628,10.40733 -13.42002,15.35103 -48.21041,50.11059 -66.78759,66.72842 -14.97739,13.39771 -18.12148,16.8567 -15.32211,16.8567 3.48912,0 51.69195,-45.74322 76.05183,-72.17119 8.16695,-8.8603 15.30251,-16.29186 15.85678,-16.51458 0.55429,-0.22273 1.40788,1.72769 1.89688,4.33425 1.03426,5.51309 -1.72973,16.67683 -6.81968,27.54469 -4.40902,9.41397 -20.75717,25.7345 -35.16224,35.10283 -6.025,3.91836 -18.3131,11.89704 -27.30687,17.73041 -8.99378,5.83336 -17.0507,11.44761 -17.90426,12.47609 -2.04104,2.4593 -0.38065,4.01914 2.4181,2.27166 1.20821,-0.75438 11.4759,-6.75887 22.81708,-13.34333 29.55372,-17.15827 42.35192,-25.26308 54.56733,-34.55626 5.91201,-4.49772 11.13153,-7.79447 11.59894,-7.32612 0.4674,0.46834 0.78916,3.55718 0.71501,6.86409 -0.45842,20.44428 -10.7755,29.49195 -50.12725,43.95968 -9.92354,3.64841 -23.7287,8.72131 -30.67814,11.27311 -14.757,5.4187 -15.38921,8.11331 -1.31302,5.59636 27.50922,-4.9189 52.63006,-12.55618 69.88969,-21.248 l 9.14161,-4.60363 v 5.12643 c 0,9.73472 -11.56151,18.53428 -30.48519,23.20251 -8.44187,2.08251 -51.45768,9.07782 -55.82162,9.07782 -0.73129,0 -1.32962,0.63784 -1.32962,1.4174 0,2.37335 63.32618,0.72556 72.17118,-1.87794 3.89853,-1.14752 7.26997,-2.09329 7.49209,-2.1017 0.22212,-0.009 0.22212,1.85101 0,4.13207 -0.47298,4.85727 -5.02467,8.40672 -16.31086,12.71934 -9.50046,3.63027 -27.26337,4.56522 -48.60728,2.55845 -16.10817,-1.5145 -19.03749,-1.2929 -16.49658,1.24802 2.45872,2.45871 30.86065,8.76026 46.5779,10.33425 8.66018,0.86727 15.74579,2.15118 15.74579,2.85314 0,0.70196 -2.01427,3.17599 -4.47616,5.49786 -8.18144,7.71607 -16.76952,7.20894 -42.96246,-2.53695 -15.78556,-5.87351 -19.57748,-6.81457 -19.57748,-4.85862 0,1.64517 19.175,12.7871 29.39918,17.08285 5.1372,2.15842 12.22291,4.26579 15.74602,4.68305 6.64356,0.78684 7.64069,2.08428 4.69638,6.11086 -1.44041,1.96987 -3.11283,2.25327 -10.63236,1.80167 -9.39492,-0.56422 -13.9875,-2.40226 -34.26578,-13.71372 -5.61646,-3.13294 -10.21356,-4.96586 -10.65664,-4.24894 -1.08929,1.76251 21.66186,20.16629 29.94918,24.2264 8.26617,4.04974 7.36858,5.83088 -3.27426,6.49726 -5.8351,0.36535 -8.8146,-0.19521 -13.88286,-2.6119 z"
       id="path66180" />
    <path
       style="fill:#00feff;fill-opacity:1;stroke:#000000;stroke-width:1.28877"
       d="m 504.32157,285.09839 c 0.75461,-0.90926 1.93964,-3.14612 2.63338,-4.97081 l 1.26135,-3.3176 -16.32987,-1.53901 c -8.98143,-0.84645 -19.80955,-2.28721 -24.0625,-3.2017 -7.73051,-1.66225 -7.727,-1.66287 12.88771,-2.2809 17.35801,-0.52039 21.70606,-1.06553 27.48289,-3.44566 5.96393,-2.45722 8.41092,-2.73157 18.68718,-2.09516 7.49322,0.46407 16.07338,0.0627 23.42358,-1.09579 6.37941,-1.00546 11.65661,-1.76131 11.72709,-1.67966 0.0705,0.0816 -0.38009,2.02956 -1.00129,4.32871 -1.59584,5.90649 -8.80171,12.58595 -16.24492,15.05818 -3.48976,1.15912 -13.82466,2.94782 -22.96645,3.9749 -20.31073,2.28191 -19.158,2.26448 -17.49815,0.2645 z"
       id="path66219" />
    <path
       style="fill:#00feff;fill-opacity:1;stroke:#000000;stroke-width:1.28877"
       d="m 480.71164,247.4045 c 16.99887,-2.76336 34.05974,-7.89632 40.03764,-12.04578 2.96217,-2.05615 9.22729,-4.53809 14.40963,-5.70841 5.04284,-1.13882 16.83595,-4.99543 26.20691,-8.57024 9.37095,-3.57482 17.53028,-6.49967 18.13184,-6.49967 3.47919,0 -2.53871,14.7511 -9.03752,22.15284 -5.51948,6.28633 -14.01087,9.603 -28.80326,11.25031 -16.1221,1.79539 -15.0566,1.92249 -16.53749,-1.97256 -0.89919,-2.36503 -1.94382,-3.15744 -3.51223,-2.66424 -12.96311,4.0764 -18.257,4.90563 -34.45166,5.39645 l -18.0428,0.54684 z"
       id="path66258" />
    <path
       style="fill:#00feff;fill-opacity:1;stroke:#000000;stroke-width:1.28877"
       d="m 483.35082,224.39295 c 24.88446,-9.39249 37.91299,-16.37735 44.35322,-23.77871 2.87617,-3.30538 5.94835,-6.77944 6.82708,-7.72012 0.87873,-0.94068 6.52723,-4.58552 12.55224,-8.09965 6.025,-3.51413 18.78384,-12.1092 28.35297,-19.10015 9.56912,-6.99095 17.59405,-12.52627 17.83319,-12.3007 1.07841,1.01725 -3.01318,16.21434 -6.35993,23.6222 -5.34175,11.82366 -16.21149,21.85874 -36.02929,33.26268 l -16.04027,9.2302 -1.58333,-5.22886 c -0.87084,-2.87587 -1.82713,-5.47265 -2.12509,-5.77061 -0.29796,-0.29797 -3.64509,1.20589 -7.43806,3.34191 -9.16546,5.16153 -28.06596,12.37315 -42.71137,16.29682 -18.20996,4.87865 -17.49266,3.74151 2.36864,-3.75501 z"
       id="path66297" />
    <path
       style="fill:#00feff;fill-opacity:1;stroke:#000000;stroke-width:1.28877"
       d="m 512.86914,175.64643 c 3.98349,-4.40191 9.27485,-12.08621 11.75856,-17.07622 3.69241,-7.4184 8.11342,-12.71523 24.24559,-29.04871 10.85136,-10.98677 23.96567,-24.9055 29.14292,-30.930506 5.17725,-6.025005 9.67819,-11.244528 10.00209,-11.59894 0.3239,-0.354412 0.35777,7.184899 0.0753,16.754026 -0.5042,17.0793 -0.60467,17.58751 -5.47813,27.70858 -4.21016,8.74356 -7.14455,12.46425 -19.31186,24.48665 -7.89104,7.79707 -17.08854,16.09735 -20.43887,18.44507 l -6.09152,4.26858 v -3.366 c 0,-1.85131 -0.89891,-5.10431 -1.99757,-7.22889 -1.96896,-3.80754 -2.04013,-3.8297 -4.96797,-1.54696 -14.28527,11.13775 -22.41427,17.13678 -23.22125,17.13678 -0.52799,0 2.29924,-3.60156 6.28274,-8.00346 z"
       id="path66336" />
    <path
       style="fill:#00feff;fill-opacity:1;stroke:#000000;stroke-width:1.28877"
       d="m 507.13145,311.87539 c -1.06323,-0.26524 -5.87783,-0.85645 -10.6991,-1.31381 -6.40026,-0.60715 -8.44907,-1.23671 -7.59178,-2.3328 0.64579,-0.82569 1.51564,-3.30804 1.933,-5.51635 0.75846,-4.01313 0.75552,-4.01546 -5.94032,-4.71776 -6.67562,-0.70018 -22.23013,-5.80747 -21.10713,-6.93048 0.32491,-0.32491 4.07331,0.31168 8.32978,1.41464 9.01483,2.33598 16.68664,2.56317 21.73531,0.64367 2.81157,-1.06896 5.39258,-0.80608 12.00504,1.22272 4.63289,1.42144 13.49798,2.95619 19.70019,3.41056 6.20221,0.45437 11.27675,1.2758 11.27675,1.82541 0,1.96262 -5.44395,7.87392 -8.89485,9.65845 -3.51442,1.81737 -17.10575,3.54406 -20.74689,2.63575 z"
       id="path66375" />
    <path
       style="fill:#00feff;fill-opacity:1;stroke:#000000;stroke-width:1.28877"
       d="m 479.42015,329.44309 c -3.54562,-1.27738 -8.08287,-3.17985 -10.08279,-4.22771 -3.22217,-1.68826 -3.4053,-2.09686 -1.60825,-3.58828 3.19018,-2.64761 2.4682,-6.42036 -1.51614,-7.92267 -4.68218,-1.76542 -14.8328,-7.71675 -14.21517,-8.33437 0.26722,-0.26722 4.0008,0.93389 8.29684,2.66914 4.29604,1.73525 10.8448,3.39196 14.55278,3.6816 5.36155,0.41879 7.57545,1.33249 10.81371,4.46294 2.23955,2.16499 7.40661,5.46012 11.48235,7.32252 4.07574,1.8624 7.41043,3.66323 7.41043,4.00185 0,1.4398 -9.32936,4.34674 -13.81289,4.30397 -2.68086,-0.0256 -7.77525,-1.09162 -11.32087,-2.36899 z"
       id="path66414" />
    <path
       style="fill:#00feff;fill-opacity:1;stroke:#000000;stroke-width:1.28877"
       d="m 98.857427,329.57102 -4.244265,-2.347 7.389138,-3.06263 c 4.06403,-1.68445 9.45363,-4.90634 11.97689,-7.15978 3.64757,-3.2575 6.17008,-4.27767 12.30891,-4.97804 4.24664,-0.48449 10.85936,-2.3176 14.69493,-4.07359 3.83557,-1.75598 7.22096,-2.9455 7.52308,-2.64338 0.5866,0.5866 -8.27643,5.98636 -14.15172,8.62188 -4.00493,1.79651 -4.87017,6.74975 -1.50777,8.63145 1.57148,0.87944 0.174,1.95609 -6.12166,4.71627 -10.5662,4.63248 -21.94558,5.56954 -27.867533,2.29482 z"
       id="path66453" />
    <path
       style="fill:#00feff;fill-opacity:1;stroke:#000000;stroke-width:1.28877"
       d="m 76.671899,310.89982 c -2.486376,-0.87711 -5.421114,-2.17469 -6.52164,-2.88351 -2.088501,-1.34516 -6.356086,-7.05055 -6.356086,-8.49754 0,-0.45968 5.36451,-1.24965 11.921133,-1.75549 6.556623,-0.50583 15.227217,-2.02703 19.267985,-3.38043 5.554089,-1.86027 8.169049,-2.14814 10.716259,-1.17969 4.88096,1.85574 14.42619,1.57319 23.0902,-0.6835 4.14833,-1.0805 7.78987,-1.71709 8.09232,-1.41464 1.05613,1.05613 -14.49976,6.29185 -20.59735,6.93255 -3.38169,0.35533 -6.45583,1.14327 -6.8314,1.75096 -0.37558,0.6077 -0.13679,3.08267 0.53065,5.49994 1.15027,4.16593 1.02521,4.43271 -2.39904,5.11756 -8.724447,1.74489 -26.558905,2.02976 -30.913031,0.49379 z"
       id="path66492" />
    <path
       style="fill:#00feff;fill-opacity:1;stroke:#000000;stroke-width:1.28877"
       d="M 75.020697,284.70753 C 53.808164,282.2697 43.938279,277.52902 39.785811,267.7836 c -0.971884,-2.28091 -1.767062,-4.63108 -1.767062,-5.2226 0,-0.59152 5.074537,-0.28754 11.276748,0.67552 6.828215,1.06026 16.219141,1.49035 23.805401,1.09026 10.433354,-0.55025 13.450842,-0.25564 18.042797,1.76158 7.728116,3.39492 23.958005,5.36822 37.687475,4.5822 8.27852,-0.47394 10.57247,-0.31444 7.9352,0.55176 -4.62114,1.51779 -32.75399,5.21909 -39.66923,5.21909 -4.713863,0 -5.05362,0.23195 -4.247612,2.89974 0.481845,1.59485 1.390848,3.45068 2.020004,4.12407 1.947563,2.08447 1.271265,3.29291 -1.755815,3.13737 -1.594855,-0.0819 -9.736713,-0.93472 -18.09302,-1.89506 z"
       id="path66531" />
    <path
       style="fill:#00feff;fill-opacity:1;stroke:#000000;stroke-width:1.28877"
       d="M 65.727329,249.10847 C 51.103707,247.28557 41.487384,245.37145 38.067076,243.60274 30.461242,239.66961 21.73787,227.28966 19.27672,216.93602 l -0.818634,-3.44386 18.107413,6.86975 c 9.959077,3.77836 22.334497,7.93229 27.500934,9.23094 5.166438,1.29866 12.003285,3.98573 15.192994,5.97126 7.108457,4.42489 19.343005,8.24 36.569453,11.40349 l 13.04824,2.3962 -17.39841,-0.56232 c -15.283869,-0.49398 -24.734546,-2.00937 -32.545126,-5.21852 -1.704909,-0.7005 -2.653242,-0.0185 -3.866313,2.78063 -1.590988,3.67112 -1.685859,3.699 -9.339942,2.74488 z"
       id="path66570" />
    <path
       style="fill:#00feff;fill-opacity:1;stroke:#000000;stroke-width:1.28877"
       d="m 117.97081,228.07528 c -15.28332,-4.30956 -24.702022,-7.89592 -37.774556,-14.38342 -12.262816,-6.08566 -11.927133,-6.1418 -13.693519,2.2902 l -0.775406,3.70148 -15.311773,-8.67324 C 31.159935,200.10311 19.355705,189.52129 13.872858,178.25186 9.9433166,170.17509 6.031953,155.92362 7.3759362,154.57964 c 0.3857763,-0.38578 9.0330808,5.28043 19.2162328,12.59157 10.183152,7.31113 23.318915,16.10614 29.190585,19.54445 6.712866,3.9309 11.384255,7.62156 12.584394,9.94237 4.203872,8.12939 20.792795,17.70595 47.622252,27.49169 7.08825,2.58535 14.04761,5.2203 15.46526,5.85545 l 2.57754,1.1548 -2.57754,-0.005 c -1.41765,-0.003 -7.48538,-1.38859 -13.48385,-3.08002 z"
       id="path66609" />
    <path
       style="fill:#00feff;fill-opacity:1;stroke:#000000;stroke-width:1.28877"
       d="M 82.671218,176.23946 C 76.3967,171.45489 70.4684,166.97334 69.497217,166.28045 c -2.585248,-1.84445 -4.74737,0.90766 -5.613,7.14465 l -0.73443,5.29167 -6.443856,-4.84503 C 36.934363,159.00583 22.556389,143.21447 16.555199,129.77411 12.71417,121.17168 10.951663,108.28403 12.043302,96.782605 l 0.84441,-8.896631 10.248829,12.118556 c 5.636857,6.66521 18.784048,20.6372 29.215981,31.04888 15.592199,15.56192 19.693093,20.45139 23.046936,27.47874 2.48581,5.20854 7.370739,12.037 12.502995,17.47746 4.632767,4.91098 7.917809,8.92905 7.300095,8.92905 -0.617714,0 -6.256813,-3.91464 -12.53133,-8.6992 z"
       id="path66648" />
    <path
       style="fill:#008080;fill-opacity:1;stroke:#000000;stroke-width:1.28877"
       d="m 289.8522,360.6904 c -6.00221,-4.07321 -7.63632,-5.98478 -10.87564,-12.72219 -5.52661,-11.49473 -1.38548,-28.69441 8.77452,-36.44382 3.85483,-2.94022 5.88351,-3.50808 12.5326,-3.50808 6.64965,0 8.67767,0.56778 12.53391,3.50908 8.59326,6.5544 13.20967,21.37383 10.17216,32.65429 -0.77221,2.86777 -3.55202,7.72359 -6.17735,10.7907 -8.22187,9.60541 -18.13537,11.70871 -26.9602,5.72002 z m 18.95374,-13.12092 c 3.29475,-2.94385 4.17238,-4.87112 4.695,-10.31017 l 0.64278,-6.68951 h -4.03029 c -4.14413,0 -4.47913,-0.55694 -4.06971,-6.76604 0.21717,-3.29351 -0.11743,-3.54413 -4.73176,-3.54413 -5.80174,0 -9.94094,2.53795 -12.63458,7.74686 -2.44008,4.71861 -2.45208,9.10749 -0.0336,12.30497 1.04069,1.37592 1.91061,3.69056 1.93315,5.14365 0.0629,4.05251 2.60217,5.73503 8.65542,5.73503 4.23086,0 6.46853,-0.84627 9.57361,-3.62066 z"
       id="path66687" />
    <path
       style="fill:#806600;fill-opacity:1;stroke:#000000;stroke-width:0.644386"
       d="m 143.37579,510.03119 v -43.17384 h 7.41044 7.41043 v 43.17384 43.17383 h -7.41043 -7.41044 z"
       id="path70574" />
    <path
       style="fill:#806600;fill-opacity:1;stroke:#000000;stroke-width:0.644386"
       d="m 205.559,554.01654 -5.15508,-0.21493 -8.08889,-22.36623 c -5.93551,-16.41203 -8.38002,-22.42231 -9.18249,-22.57685 -1.01178,-0.19485 -1.09361,1.48066 -1.09361,22.39013 v 22.60075 h -6.04582 -6.04581 l -0.39046,-27.54749 c -0.21475,-15.15111 -0.52364,-34.58899 -0.68641,-43.19529 l -0.29596,-15.6478 6.83411,0.18255 6.8341,0.18255 7.75061,21.44999 c 6.01175,16.63763 7.97672,21.40648 8.75843,21.25608 0.88595,-0.17045 1.02834,-2.78357 1.17759,-21.61108 l 0.16979,-21.41718 h 6.75736 6.75736 v 43.49603 43.49602 l -1.44987,-0.13116 c -0.79742,-0.0721 -3.76965,-0.22788 -6.60495,-0.34609 z"
       id="path70650" />
    <path
       style="fill:#806600;fill-opacity:1;stroke:#000000;stroke-width:0.644386"
       d="m 240.67802,554.26626 c -9.23149,-2.11532 -14.66838,-7.95523 -17.82844,-19.15004 -0.96203,-3.40806 -1.16829,-6.54165 -1.16337,-17.6746 0.0152,-34.38772 8.07372,-51.02461 24.60993,-50.80729 5.9432,0.0781 9.15235,1.38468 13.12536,5.34385 6.07384,6.05269 8.23132,13.75665 8.772,31.3233 1.10608,35.93587 -9.26563,55.14658 -27.51548,50.96478 z m 7.90693,-15.23652 c 3.75286,-2.952 5.32047,-14.03854 4.78367,-33.83144 -0.45276,-16.69401 -1.926,-22.64421 -5.98908,-24.18899 -3.32454,-1.26399 -8.20499,2.42448 -10.02917,7.57969 -1.14063,3.22345 -1.10548,36.7868 0.0442,42.18388 1.66228,7.80362 6.876,11.65057 11.1904,8.25686 z"
       id="path70689" />
    <path
       style="fill:#806600;fill-opacity:1;stroke:#000000;stroke-width:0.644386"
       d="m 286.75961,553.04393 c -0.15054,-0.44302 -3.78175,-19.36379 -8.06934,-42.04616 -4.28759,-22.68238 -7.94452,-41.74813 -8.12649,-42.36835 -0.30298,-1.03259 0.36651,-1.12768 7.93984,-1.12768 h 8.27071 l 3.74616,22.71459 c 4.44919,26.97735 4.15712,25.61433 5.48862,25.61433 0.91216,0 1.51946,-3.45179 4.27975,-24.32556 l 3.21675,-24.32555 7.89372,-0.18093 c 5.61441,-0.12869 7.89373,0.0326 7.89373,0.55849 0,0.7167 -15.83335,81.92659 -16.54158,84.84243 -0.34073,1.40281 -0.60154,1.44987 -8.03516,1.44987 -5.57082,0 -7.75824,-0.22144 -7.95671,-0.80548 z"
       id="path70728" />
    <path
       style="fill:#806600;fill-opacity:1;stroke:#000000;stroke-width:0.644386"
       d="m 319.57126,553.00057 c -0.28136,-0.73322 14.97985,-85.50036 15.48496,-86.00989 0.10297,-0.10388 3.68631,-0.3648 7.96297,-0.57983 l 7.77575,-0.39096 0.37414,1.54641 c 0.20578,0.85052 3.64194,20.53967 7.63591,43.75366 l 7.26176,42.20726 -7.04051,0.18299 c -3.87228,0.10066 -7.16788,0.0556 -7.32357,-0.10006 -0.15568,-0.15568 -0.91681,-4.29766 -1.6914,-9.20439 l -1.40833,-8.92134 -6.27793,-0.18443 c -3.45286,-0.10144 -6.27793,-0.024 -6.27793,0.17204 0,0.33623 -2.82714,13.80276 -3.55373,16.92751 -0.3205,1.37833 -0.6396,1.44987 -6.46675,1.44987 -4.47625,0 -6.21747,-0.22896 -6.45534,-0.84884 z m 28.43258,-34.10908 c -0.17112,-0.79743 -1.24534,-8.33674 -2.38715,-16.75402 -1.84354,-13.59039 -2.20695,-15.30416 -3.24527,-15.30416 -0.64309,0 -1.16925,0.10523 -1.16925,0.23384 0,0.12861 -1.01491,7.27272 -2.25535,15.8758 -1.24045,8.60307 -2.25535,16.03715 -2.25535,16.52018 0,0.67646 1.33519,0.87823 5.81174,0.87823 5.6896,0 5.80521,-0.0305 5.50063,-1.44987 z"
       id="path70767" />
    <path
       style="fill:#806600;fill-opacity:1;stroke:#000000;stroke-width:0.644386"
       d="m 405.53309,554.01717 -4.29614,-0.22421 -0.70248,-4.32138 c -0.38636,-2.37676 -1.13719,-7.51109 -1.6685,-11.40962 -1.80851,-13.27 -3.92616,-17.46372 -9.17379,-18.16743 l -2.73864,-0.36725 v 17.16106 17.16107 h -7.08824 -7.08824 V 529.1454 c 0,-13.58721 -0.19116,-32.99363 -0.42481,-43.12538 l -0.42481,-18.42138 2.51907,-0.513 c 4.20659,-0.85667 13.84413,-0.52049 18.3065,0.63857 9.99989,2.59738 17.37531,8.15341 19.98728,15.05674 2.77517,7.33468 0.73555,16.13722 -6.08725,26.27121 l -3.46233,5.14264 1.96533,2.2384 c 4.14601,4.72203 5.64495,9.94047 6.91349,24.06865 0.37506,4.17724 1.10761,8.81681 1.62788,10.31017 1.28728,3.6949 1.28579,3.69854 -1.45173,3.55556 -1.32905,-0.0694 -4.34971,-0.2271 -6.71259,-0.35041 z m -14.03222,-47.85181 c 3.15565,-0.87664 5.52952,-3.57352 7.12815,-8.09805 3.89128,-11.01336 1.47115,-16.06077 -8.29245,-17.2947 l -3.38303,-0.42755 v 13.2321 c 0,14.74498 -0.29334,13.93294 4.54733,12.5882 z"
       id="path70806" />
    <path
       style="fill:#806600;fill-opacity:1;stroke:#000000;stroke-width:0.644386"
       d="m 423.68352,510.35338 v -43.49603 l 6.60495,-0.002 c 3.63273,-10e-4 10.73708,-0.19139 15.78745,-0.42243 l 9.18249,-0.42007 v 7.85654 7.85655 l -8.37701,-0.44225 -8.37701,-0.44224 v 10.40654 10.40654 h 8.6992 8.69921 v 7.73262 7.73263 h -8.27909 -8.27909 l -0.42011,6.86629 c -0.23107,3.77646 -0.42012,8.56102 -0.42012,10.63236 v 3.76607 h 9.34359 9.34359 v 7.73263 7.73263 h -16.75402 -16.75403 z"
       id="path70845" />
    <path
       style="fill:#806600;fill-opacity:1;stroke:#000000;stroke-width:0.644386"
       d="m 290.88917,375.0441 c -11.07249,-1.86535 -18.10512,-4.95057 -23.91362,-10.49095 -2.05922,-1.96416 -3.74404,-3.81952 -3.74404,-4.12301 0,-0.3035 1.52236,0.30203 3.38302,1.34562 3.89922,2.18695 15.57466,5.81549 23.99439,7.45707 11.71041,2.28316 27.09318,0.25626 38.67838,-5.09643 5.94012,-2.7445 6.41307,-2.82824 3.86005,-0.68345 -13.02408,10.94154 -25.61461,14.39504 -42.25818,11.59115 z"
       id="path70884" />
    <path
       style="fill:#806600;fill-opacity:1;stroke:#000000;stroke-width:0.644386"
       d="m 290.6179,374.36264 c -9.30668,-1.74237 -16.40897,-4.62056 -20.91101,-8.47414 -1.46888,-1.2573 -2.54876,-2.40794 -2.39974,-2.55696 0.14903,-0.14903 2.19261,0.45235 4.54128,1.33639 2.34868,0.88404 7.9676,2.55571 12.48648,3.71483 7.22033,1.85205 9.23146,2.10722 16.59316,2.10531 8.97922,-0.002 15.40126,-1.04276 23.63879,-3.82972 2.55647,-0.86491 4.74137,-1.47932 4.85534,-1.36535 0.75434,0.75433 -10.7927,6.85542 -15.92861,8.41618 -5.01806,1.52494 -16.47298,1.85216 -22.87569,0.65346 z"
       id="path70923" />
    <path
       style="fill:#806600;fill-opacity:1;stroke:#000000;stroke-width:0.644386"
       d="m 293.46484,374.04487 c -5.138,-0.60083 -11.32411,-2.2523 -15.92695,-4.25193 -3.45066,-1.49909 -7.48414,-4.05292 -7.06426,-4.4728 0.12545,-0.12544 4.27427,0.968 9.2196,2.42987 8.54706,2.52656 9.50114,2.67142 19.30168,2.93061 10.32305,0.273 11.41032,0.15116 24.16446,-2.70795 0.88603,-0.19863 -1.03129,0.94432 -4.26072,2.53988 -5.00492,2.47278 -6.7647,2.99508 -11.92113,3.53818 -6.70357,0.70605 -7.42746,0.70573 -13.51268,-0.006 z"
       id="path70962" />
    <path
       style="fill:#806600;fill-opacity:1;stroke:#000000;stroke-width:0.644386"
       d="m 293.24924,373.35264 c -7.11458,-1.03763 -18.43813,-4.63735 -17.50932,-5.56616 0.16737,-0.16737 3.29341,0.48657 6.94676,1.45319 5.80228,1.5352 7.94653,1.76818 16.95262,1.84196 5.67059,0.0465 12.05001,-0.12844 14.17648,-0.38867 l 3.86631,-0.47313 -2.7598,1.26118 c -2.77946,1.27016 -11.37405,2.65198 -15.58828,2.50624 -1.24974,-0.0432 -3.98789,-0.32879 -6.08477,-0.63461 z"
       id="path71001" />
    <path
       style="fill:#806600;fill-opacity:1;stroke:#000000;stroke-width:0.644386"
       d="m 345.06848,319.84054 c -9.90887,-9.2409 -18.33441,-14.14276 -29.40215,-17.10577 -5.64404,-1.511 -7.56002,-1.70457 -16.99361,-1.71687 -9.0214,-0.0118 -11.41344,0.2023 -15.78745,1.41277 -10.29803,2.8499 -18.03974,7.53652 -26.61554,16.11232 -5.52334,5.52335 -5.59874,4.73786 -0.25783,-2.68612 12.05107,-16.75129 28.23708,-24.56361 47.4738,-22.91365 15.64187,1.34163 31.14103,10.51793 42.80344,25.34183 5.44267,6.91809 5.05682,7.40979 -1.22066,1.55549 z"
       id="path71040" />
    <path
       style="fill:#806600;fill-opacity:1;stroke:#000000;stroke-width:0.644386"
       d="m 342.49094,316.61617 c -8.04463,-7.06429 -18.10289,-12.35936 -28.03078,-14.75653 -7.33838,-1.77191 -24.47324,-1.78129 -31.3709,-0.0172 -8.7683,2.24256 -15.58169,5.90873 -23.34616,12.56219 -4.58079,3.92533 -4.50359,3.16712 0.23649,-2.32265 7.2099,-8.35022 14.45068,-13.35872 23.69158,-16.38765 5.17953,-1.69772 6.44803,-1.85453 15.00155,-1.85453 8.00037,0 10.03437,0.21692 14.14873,1.50891 8.73494,2.74296 16.15744,7.0101 23.9584,13.7735 3.64859,3.16331 9.27339,9.41088 8.84186,9.82082 -0.12707,0.12071 -1.53592,-0.92639 -3.13077,-2.32689 z"
       id="path71079" />
    <path
       style="fill:#806600;fill-opacity:1;stroke:#000000;stroke-width:0.644386"
       d="m 335.4027,310.51711 c -3.34867,-2.41202 -10.6839,-6.02567 -15.69585,-7.73246 -6.55012,-2.23059 -14.21227,-3.03924 -24.90045,-2.62792 -12.84675,0.49438 -19.88295,2.63669 -29.00442,8.83096 -5.35209,3.63453 -4.61287,1.94746 1.34346,-3.06608 5.37739,-4.52625 11.02914,-7.68082 17.62188,-9.83578 3.8545,-1.25992 5.78106,-1.45408 14.19901,-1.43102 8.787,0.0241 10.24132,0.19426 14.87197,1.74036 2.82291,0.94252 6.99802,2.73418 9.27803,3.98147 6.31595,3.45516 17.15163,11.9064 15.12488,11.79658 -0.32074,-0.0174 -1.59807,-0.76263 -2.83851,-1.65611 z"
       id="path71118" />
    <path
       style="fill:#806600;fill-opacity:1;stroke:#000000;stroke-width:0.644386"
       d="m 325.84553,304.69849 c -9.59412,-4.54705 -22.0387,-6.22551 -35.74637,-4.82127 -7.76905,0.79588 -12.77806,2.06015 -17.42704,4.39857 -1.71869,0.8645 -3.26143,1.43529 -3.4283,1.26841 -0.91751,-0.9175 10.85744,-7.38016 16.49705,-9.05438 5.52642,-1.64061 21.12056,-1.45281 26.87936,0.32371 5.07634,1.56599 10.52455,4.20257 15.47167,7.48727 5.35455,3.55522 4.67117,3.67621 -2.24637,0.39769 z"
       id="path71157" />
    <path
       style="fill:#806600;fill-opacity:1;stroke:#000000;stroke-width:0.644386"
       d="m 317.89978,301.22924 c -5.41129,-1.75171 -15.92308,-2.79079 -23.17799,-2.29112 -5.65249,0.38931 -7.7807,0.66367 -15.38064,1.98283 -2.22173,0.38563 -2.20997,0.36693 0.78868,-1.25439 4.82027,-2.60623 9.66187,-3.57138 17.91554,-3.57138 8.72184,0 13.14056,0.70321 18.75571,2.98485 7.52341,3.05703 8.24132,4.46137 1.0987,2.14921 z"
       id="path71196" />
    <path
       style="fill:#ffffff;fill-opacity:1;stroke:#000000;stroke-width:0.644386"
       d="m 294.48421,367.55267 c -6.79468,-0.97805 -19.18645,-4.42705 -23.84227,-6.63602 -6.21942,-2.95082 -10.12959,-6.3522 -18.65181,-16.22484 l -7.32313,-8.48355 5.32647,-6.68554 c 13.4541,-16.88701 25.3268,-24.31783 42.1157,-26.35917 10.8148,-1.31495 24.44765,1.20008 34.84673,6.42864 6.40382,3.21977 13.13065,8.5487 23.10077,18.30017 l 7.88792,7.71494 -4.98819,4.91269 c -2.7435,2.70198 -7.74598,7.80297 -11.11662,11.33554 -6.82069,7.14837 -10.24802,9.32204 -19.68208,12.48274 -10.39663,3.48319 -18.9246,4.47376 -27.67349,3.2144 z m 15.5873,-4.15068 c 6.81118,-3.3324 13.11909,-11.60283 14.96606,-19.62228 0.36731,-1.59486 0.66881,-5.5095 0.67,-8.69921 0.004,-12.03335 -6.56007,-23.22431 -16.27711,-27.74847 -2.79116,-1.29954 -4.35737,-1.55953 -9.42662,-1.56478 -7.02618,-0.007 -9.59819,0.93256 -14.59926,5.33467 -11.97061,10.53696 -14.22065,30.10437 -5.00098,43.49093 7.24789,10.52362 19.01952,14.01891 29.66791,8.80914 z"
       id="path71235" />
    <path
       style="fill:transparent;fill-opacity:1;stroke:#000000;stroke-width:0.644386"
       d="m 228.27359,404.51326 c -14.44229,-0.0967 -26.25926,-0.38999 -26.25993,-0.65183 -0.003,-1.19516 97.62079,-203.06968 97.99736,-202.64688 0.23422,0.26298 22.83754,46.00398 50.2296,101.64667 27.39205,55.6427 49.92014,101.38602 50.06241,101.65183 0.23414,0.43747 -106.68166,0.4376 -172.02944,2.1e-4 z m 85.25251,-27.55612 c 4.43362,-1.14886 11.55875,-4.5279 16.05705,-7.61492 4.86241,-3.33691 12.82616,-11.38941 17.81995,-18.01857 2.61449,-3.4707 4.75362,-6.56928 4.75362,-6.88575 0,-0.31647 2.15847,-2.33916 4.79659,-4.49484 l 4.79659,-3.91943 -4.37406,-6.59323 c -14.16101,-21.34557 -27.41546,-32.49259 -44.42568,-37.36213 -7.22565,-2.06849 -21.49925,-2.0643 -28.65325,0.008 -11.72047,3.39576 -21.41457,10.47694 -29.76071,21.7391 -3.96675,5.35268 -8.58888,13.27019 -10.98357,18.81438 l -1.72491,3.99352 6.45937,7.60542 c 3.55266,4.18298 8.51354,10.69801 11.02419,14.47784 6.74265,10.15117 12.96276,14.50205 24.72671,17.29598 11.37554,2.70169 21.48229,3.02873 29.48811,0.95422 z"
       id="path71311" />
    <path
       style="fill:#000000;fill-opacity:1;stroke:#000000;stroke-width:0.644386"
       d="m 294.72217,349.12505 c -1.54075,-0.23724 -1.72111,-0.5734 -1.97952,-3.68955 -0.21155,-2.55094 -0.80851,-4.14132 -2.33221,-6.21323 -2.29784,-3.12458 -2.46673,-4.40359 -1.09488,-8.29183 2.11101,-5.98322 6.14847,-9.01792 12.03469,-9.04569 l 2.99973,-0.0141 -0.35153,3.87673 c -0.47297,5.21598 0.56586,6.43344 5.48952,6.43344 h 3.52726 l -0.43057,3.38302 c -0.4774,3.75096 -2.91884,9.33129 -4.84525,11.07466 -2.61646,2.36786 -7.60265,3.32034 -13.01724,2.4866 z"
       id="path72085" />
    <path
       style="fill:#00ffff;fill-opacity:1;stroke:#000000;stroke-width:0.644386"
       d="m 295.31909,362.20245 c -3.42709,-1.22358 -8.5372,-4.64123 -10.80986,-7.22964 -2.99755,-3.41403 -5.72611,-9.37682 -6.58635,-14.39335 -1.91455,-11.16482 4.33431,-25.48312 13.10892,-30.03709 2.44322,-1.26801 9.92539,-1.94303 14.28716,-1.28894 8.1091,1.21604 15.37018,10.87728 17.24199,22.94138 1.40029,9.02509 -1.30629,16.6538 -8.47459,23.88631 -6.2087,6.2643 -12.56238,8.33668 -18.76727,6.12133 z m 10.11968,-11.27184 c 2.94284,-1.36756 7.03851,-5.39919 7.9513,-7.82698 0.33969,-0.90347 0.80674,-3.65822 1.03791,-6.12167 0.23116,-2.46345 0.55249,-5.11755 0.71406,-5.898 0.27485,-1.32763 0.0341,-1.43136 -3.73818,-1.61096 l -4.03194,-0.19197 -0.18394,-4.1885 c -0.21752,-4.95327 -0.98629,-5.8011 -5.2554,-5.79588 -7.04935,0.009 -12.44966,3.70906 -14.89377,10.20561 -1.65172,4.39036 -1.38513,7.63313 0.96565,11.7457 0.89724,1.56967 1.63483,3.52545 1.6391,4.34617 0.0148,2.85502 1.74888,5.00975 4.84065,6.01507 2.67313,0.86919 8.38534,0.51535 10.95456,-0.67859 z"
       id="path72198" />
  </g>
</svg>
